<?xml version="1.0" standalone="no"?>
<!DOCTYPE svg PUBLIC "-//W3C//DTD SVG 20010904//EN"
 "http://www.w3.org/TR/2001/REC-SVG-20010904/DTD/svg10.dtd">
<svg version="1.0" xmlns="http://www.w3.org/2000/svg"
 width="300.000000pt" height="113.000000pt" viewBox="0 0 300.000000 113.000000"
 preserveAspectRatio="xMidYMid meet">

<g transform="translate(0.000000,113.000000) scale(0.100000,-0.100000)"
fill="#55fcf1" stroke="none">
<path d="M12 568 c2 -310 6 -562 11 -560 4 1 673 2 1487 2 l1480 0 0 560 0
560 -1490 0 -1490 0 2 -562z m2888 2 l0 -470 -915 0 -915 0 0 470 0 470 915 0
915 0 0 -470z m-2095 318 c15 -7 33 -24 41 -39 39 -76 12 -114 -256 -361 -167
-154 -230 -218 -194 -195 34 20 280 18 314 -3 24 -15 6 -21 -91 -30 -52 -5
-128 -16 -169 -25 -84 -18 -126 -14 -164 16 -45 35 -36 67 45 154 68 72 206
208 367 360 39 37 72 71 72 75 0 3 -39 -7 -87 -23 -99 -33 -217 -46 -252 -28
-17 9 -21 20 -19 42 l3 30 120 4 c92 3 206 19 242 34 1 1 14 -4 28 -11z"/>
<path d="M1485 739 c-22 -6 -50 -7 -62 -4 -16 4 -23 1 -23 -9 0 -26 42 -26
135 1 11 3 -31 -46 -92 -109 -62 -63 -113 -120 -113 -126 0 -26 38 -32 122
-18 l83 14 -72 1 c-71 1 -90 11 -58 29 33 18 185 176 185 192 0 38 -30 46
-105 29z"/>
<path d="M1630 737 c0 -6 -16 -52 -35 -101 -44 -112 -51 -149 -32 -164 12 -11
20 -4 45 40 16 29 39 64 50 78 21 25 21 25 0 -34 l-22 -59 23 -18 c29 -23 33
-23 57 -1 18 18 20 18 47 -2 l27 -20 27 21 28 20 27 -20 c27 -20 28 -20 48 -2
24 22 24 20 5 -35 -11 -30 -12 -47 -5 -61 15 -27 37 -23 45 8 3 15 13 42 20
60 13 30 16 32 34 21 28 -17 68 13 101 74 20 38 23 52 14 75 -12 35 -37 40
-64 13 l-22 -22 -14 21 c-15 20 -51 31 -39 11 8 -13 -17 -67 -55 -118 -35 -49
-48 -49 -32 -2 6 17 9 37 6 45 -12 30 -33 22 -63 -26 -45 -69 -69 -80 -55 -25
9 39 68 98 88 90 9 -3 16 -1 16 4 0 17 -30 42 -50 42 -28 0 -75 -45 -98 -92
-48 -100 -78 -106 -38 -8 19 47 23 67 15 81 -13 26 -31 24 -59 -6 -13 -14 -25
-23 -27 -21 -2 2 5 27 17 55 15 39 18 57 10 72 -12 21 -40 26 -40 6z m465
-129 c-13 -44 -41 -91 -63 -106 -34 -22 -29 3 14 71 36 58 61 75 49 35z"/>
<path d="M2205 618 c-19 -18 -41 -49 -50 -70 -13 -34 -13 -38 6 -62 25 -31 38
-32 73 -5 14 11 26 16 26 10 0 -6 10 -15 21 -22 18 -9 27 -7 51 11 l30 22 14
-21 c21 -29 30 -26 38 11 6 31 56 118 67 118 3 0 4 -12 2 -27 l-4 -28 25 30
c14 17 26 36 26 43 0 21 -30 26 -50 7 -18 -16 -20 -16 -35 -1 -23 22 -32 20
-39 -10 -7 -25 -82 -144 -91 -144 -3 0 -2 19 1 43 5 31 2 46 -9 55 -12 10 -18
7 -32 -15 -27 -42 -67 -83 -76 -77 -13 8 27 79 56 102 15 12 33 18 41 15 20
-7 18 11 -4 30 -27 25 -48 21 -87 -15z"/>
</g>
</svg>
